name C:\Users\u0101727\Documents\MyRepositories\upper-imu-dc\Results\main_tracking\Case_10\FLX01_angularVelocities_bodyFrame.mot
datacolumns 4
datarows 58
range 0.51000000 1.08000000
endheader 
time	radius_imu_x	radius_imu_y	radius_imu_z	
          0.51000000	         -0.22897731	          1.62426890	          0.17103216	
          0.52000000	         -0.29135336	          1.60122852	          0.12387767	
          0.53000000	         -0.32835389	          1.60237479	          0.09848249	
          0.54000000	         -0.34398820	          1.57508513	          0.09276919	
          0.55000000	         -0.34698525	          1.50851528	          0.10303616	
          0.56000000	         -0.34399956	          1.43952472	          0.11961493	
          0.57000000	         -0.34730091	          1.25143671	          0.15216437	
          0.58000000	         -0.35457781	          0.98001617	          0.19160877	
          0.59000000	         -0.36634598	          0.68787887	          0.23128110	
          0.60000000	         -0.37976180	          0.39343769	          0.26859714	
          0.61000000	         -0.39299874	          0.09292035	          0.30293338	
          0.62000000	         -0.40529213	         -0.22323826	          0.33464788	
          0.63000000	         -0.41702692	         -0.55684156	          0.36421336	
          0.64000000	         -0.42953751	         -0.89532634	          0.39160377	
          0.65000000	         -0.44472644	         -1.21224344	          0.41593986	
          0.66000000	         -0.46449863	         -1.47450363	          0.43547843	
          0.67000000	         -0.49016345	         -1.65292264	          0.44790178	
          0.68000000	         -0.52203026	         -1.73144828	          0.45078798	
          0.69000000	         -0.55936720	         -1.71145421	          0.44211099	
          0.70000000	         -0.60070509	         -1.60997890	          0.42061508	
          0.71000000	         -0.64430556	         -1.45360193	          0.38595980	
          0.72000000	         -0.68857991	         -1.27111736	          0.33862905	
          0.73000000	         -0.73232972	         -1.08765835	          0.27967604	
          0.74000000	         -0.77480012	         -0.92152022	          0.21041709	
          0.75000000	         -0.81561536	         -0.78365097	          0.13218308	
          0.76000000	         -0.85467658	         -0.67895828	          0.04618240	
          0.77000000	         -0.89205530	         -0.60837300	         -0.04654721	
          0.78000000	         -0.92787055	         -0.57091742	         -0.14516258	
          0.79000000	         -0.96214260	         -0.56538308	         -0.24906323	
          0.80000000	         -0.99465879	         -0.59137821	         -0.35796139	
          0.81000000	         -1.02491815	         -0.64959599	         -0.47191967	
          0.82000000	         -1.05221120	         -0.74127946	         -0.59129039	
          0.83000000	         -1.07584218	         -0.86697320	         -0.71654075	
          0.84000000	         -1.09542665	         -1.02488557	         -0.84802077	
          0.85000000	         -1.11112661	         -1.20966573	         -0.98575128	
          0.86000000	         -1.12367272	         -1.41268037	         -1.12926904	
          0.87000000	         -1.13411353	         -1.62432930	         -1.27752857	
          0.88000000	         -1.14338948	         -1.83774428	         -1.42886162	
          0.89000000	         -1.15194569	         -2.05226712	         -1.58101183	
          0.90000000	         -1.15959716	         -2.27503833	         -1.73125156	
          0.91000000	         -1.16573272	         -2.51991083	         -1.87655428	
          0.92000000	         -1.16978536	         -2.80401835	         -2.01378886	
          0.93000000	         -1.17179375	         -3.14295105	         -2.13993727	
          0.94000000	         -1.17285888	         -3.54554608	         -2.25236368	
          0.95000000	         -1.17535441	         -4.00908543	         -2.34912823	
          0.96000000	         -1.18282573	         -4.51561901	         -2.42929124	
          0.97000000	         -1.19951253	         -5.03029834	         -2.49315775	
          0.98000000	         -1.22963941	         -5.50311557	         -2.54243861	
          0.99000000	         -1.27587698	         -5.87479423	         -2.58031456	
          1.00000000	         -1.34035789	         -6.09023035	         -2.61140918	
          1.01000000	         -1.42406011	         -6.11129950	         -2.64123922	
          1.02000000	         -1.52345867	         -5.92361497	         -2.67526783	
          1.03000000	         -1.63141718	         -5.54115769	         -2.71795485	
          1.04000000	         -1.73956094	         -5.00472756	         -2.77208465	
          1.05000000	         -1.83966617	         -4.37414086	         -2.83832293	
          1.06000000	         -1.92475204	         -3.71879031	         -2.91488503	
          1.07000000	         -1.99024001	         -3.10795984	         -2.99746669	
          1.08000000	         -2.03255914	         -2.59942198	         -3.07949130	
